<svg xmlns="http://www.w3.org/2000/svg" viewBox="0 0 100 100" width="100" height="100">
  <circle cx="50" cy="50" r="44" fill="#F90001" opacity="0.18">
    <animate attributeName="r" values="44;52;44" dur="2.4s" repeatCount="indefinite"/>
    <animate attributeName="opacity" values="0.35;0;0.35" dur="2.4s" repeatCount="indefinite"/>
  </circle>
  <circle cx="50" cy="50" r="42" fill="#0D1117"/>
  <circle cx="50" cy="50" r="42" fill="none" stroke="#F90001" stroke-width="2.5" stroke-opacity="0.65">
    <animate attributeName="stroke-opacity" values="0.65;0.15;0.65" dur="2.4s" repeatCount="indefinite"/>
  </circle>
  <path d="M50 26 c-13.3 0-24 10.8-24 24.1 0 10.7 6.9 19.7 16.5 22.9 1.2.2 1.7-.5 1.7-1.2 v-4.3 c-6.7 1.5-8.1-3.2-8.1-3.2-1.1-2.8-2.7-3.5-2.7-3.5-2.2-1.5.2-1.5.2-1.5 2.4.2 3.7 2.5 3.7 2.5 2.1 3.7 5.6 2.6 7 2 .2-1.6.8-2.6 1.5-3.2-5.3-.6-10.9-2.7-10.9-11.9 0-2.6.9-4.8 2.5-6.4-.2-.6-1.1-3 .2-6.4 0 0 2-.6 6.6 2.5 a22.7 22.7 0 0 1 12 0 c4.6-3.1 6.6-2.5 6.6-2.5 1.3 3.4.4 5.8.2 6.4 1.6 1.6 2.5 3.8 2.5 6.4 0 9.2-5.6 11.3-10.9 11.9.9.7 1.6 2.2 1.6 4.4 v6.5 c0 .7.5 1.4 1.7 1.2 C67.1 69.8 74 60.8 74 50.1 74 36.8 63.3 26 50 26 Z" fill="#ffffff"/>
</svg>
